solid walls_heater
 facet normal -0.000000e+00  0.000000e+00 -1.000000e+00
   outer loop
     vertex  6.225000e+00  0.000000e+00 -6.225000e+00
     vertex -6.225000e+00 -1.245000e+01 -6.225000e+00
     vertex -6.225000e+00  0.000000e+00 -6.225000e+00
   endloop
 endfacet
 facet normal  0.000000e+00 -0.000000e+00 -1.000000e+00
   outer loop
     vertex  6.225000e+00  0.000000e+00 -6.225000e+00
     vertex  6.225000e+00 -1.245000e+01 -6.225000e+00
     vertex -6.225000e+00 -1.245000e+01 -6.225000e+00
   endloop
 endfacet
 facet normal  0.000000e+00 -1.000000e+00  0.000000e+00
   outer loop
     vertex  6.225000e+00 -1.245000e+01 -6.225000e+00
     vertex -6.225000e+00 -1.245000e+01  6.225000e+00
     vertex -6.225000e+00 -1.245000e+01 -6.225000e+00
   endloop
 endfacet
 facet normal  0.000000e+00 -1.000000e+00  0.000000e+00
   outer loop
     vertex  6.225000e+00 -1.245000e+01 -6.225000e+00
     vertex  6.225000e+00 -1.245000e+01  6.225000e+00
     vertex -6.225000e+00 -1.245000e+01  6.225000e+00
   endloop
 endfacet
 facet normal  1.000000e+00  0.000000e+00  0.000000e+00
   outer loop
     vertex  6.225000e+00  0.000000e+00  6.225000e+00
     vertex  6.225000e+00 -1.245000e+01 -6.225000e+00
     vertex  6.225000e+00  0.000000e+00 -6.225000e+00
   endloop
 endfacet
 facet normal  1.000000e+00  0.000000e+00  0.000000e+00
   outer loop
     vertex  6.225000e+00  0.000000e+00  6.225000e+00
     vertex  6.225000e+00 -1.245000e+01  6.225000e+00
     vertex  6.225000e+00 -1.245000e+01 -6.225000e+00
   endloop
 endfacet
 facet normal -1.000000e+00  0.000000e+00  0.000000e+00
   outer loop
     vertex -6.225000e+00  0.000000e+00 -6.225000e+00
     vertex -6.225000e+00 -1.245000e+01  6.225000e+00
     vertex -6.225000e+00  0.000000e+00  6.225000e+00
   endloop
 endfacet
 facet normal -1.000000e+00  0.000000e+00  0.000000e+00
   outer loop
     vertex -6.225000e+00  0.000000e+00 -6.225000e+00
     vertex -6.225000e+00 -1.245000e+01 -6.225000e+00
     vertex -6.225000e+00 -1.245000e+01  6.225000e+00
   endloop
 endfacet
 facet normal -0.000000e+00  0.000000e+00  1.000000e+00
   outer loop
     vertex -6.225000e+00  0.000000e+00  6.225000e+00
     vertex  6.225000e+00 -1.245000e+01  6.225000e+00
     vertex  6.225000e+00  0.000000e+00  6.225000e+00
   endloop
 endfacet
 facet normal  0.000000e+00  0.000000e+00  1.000000e+00
   outer loop
     vertex -6.225000e+00  0.000000e+00  6.225000e+00
     vertex -6.225000e+00 -1.245000e+01  6.225000e+00
     vertex  6.225000e+00 -1.245000e+01  6.225000e+00
   endloop
 endfacet
endsolid
